<?xml version="1.0" encoding="UTF-8"?>
<svg fill="#ffffff" version="1.0" xmlns="http://www.w3.org/2000/svg"
            width="256" height="256" viewBox="0 0 256 256">

            <g transform="translate(0.000000,256.000000) scale(0.100000,-0.100000)" stroke="none">
                <path d="M1773 2128 c-31 -34 -421 -521 -437 -547 -6 -10 -5 -12 5 -5 35 21
                    617 399 642 416 l27 20 -92 74 c-51 41 -98 74 -104 74 -5 0 -24 -15 -41 -32z"/>
                <path d="M1535 1649 c-264 -170 -598 -387 -743 -481 l-263 -170 -62 -92 c-100
                    -147 -137 -210 -129 -218 4 -4 86 6 182 23 l175 30 95 61 c364 233 1368 884
                    1383 896 9 8 17 22 17 31 0 28 -140 231 -158 231 -9 0 -233 -140 -497 -311z
                    m-958 -756 c14 -20 23 -23 84 -23 38 0 69 -3 69 -7 0 -22 -26 -74 -39 -77 -45
                    -13 -184 -35 -192 -30 -5 3 -16 19 -24 35 -15 28 -14 31 16 77 18 26 39 55 48
                    66 15 17 16 17 20 0 2 -10 10 -28 18 -41z"/>
                <path d="M1075 919 c-126 -82 -238 -156 -247 -164 -38 -31 -14 -135 30 -135
                    33 0 14 -22 -48 -54 -54 -29 -74 -35 -88 -27 -38 20 -44 37 -32 81 13 49 10
                    56 -18 39 -14 -9 -28 -42 -46 -109 -31 -115 -32 -133 -8 -128 9 2 82 37 160
                    78 l144 75 195 243 c107 134 193 245 191 247 -2 1 -106 -65 -233 -146z"/>
            </g>
        </svg>